<?xml version="1.0" encoding="UTF-8" standalone="no"?><!-- Generator: Gravit.io --><svg xmlns="http://www.w3.org/2000/svg" xmlns:xlink="http://www.w3.org/1999/xlink" style="isolation:isolate" viewBox="0 0 1000 1000" width="1000pt" height="1000pt"><defs><clipPath id="_clipPath_mQ1zOxQkmykLpmcme7Hh5qBAF0UoG6no"><rect width="1000" height="1000"/></clipPath></defs><g clip-path="url(#_clipPath_mQ1zOxQkmykLpmcme7Hh5qBAF0UoG6no)"><g style="opacity:0.85;"><line x1="804.207" y1="340.029" x2="804" y2="789.029" vector-effect="non-scaling-stroke" stroke-width="20" stroke="rgb(115,94,191)" stroke-linejoin="miter" stroke-linecap="round" stroke-miterlimit="3"/><line x1="789.23" y1="289.022" x2="789" y2="789.022" vector-effect="non-scaling-stroke" stroke-width="20" stroke="rgb(38,133,191)" stroke-linejoin="miter" stroke-linecap="round" stroke-miterlimit="3"/><line x1="741.236" y1="275" x2="741" y2="789" vector-effect="non-scaling-stroke" stroke-width="20" stroke="rgb(50,115,103)" stroke-linejoin="miter" stroke-linecap="round" stroke-miterlimit="3"/><line x1="694.23" y1="288.978" x2="694" y2="788.978" vector-effect="non-scaling-stroke" stroke-width="20" stroke="rgb(119,217,199)" stroke-linejoin="miter" stroke-linecap="round" stroke-miterlimit="3"/><line x1="675.207" y1="339.97" x2="675" y2="788.97" vector-effect="non-scaling-stroke" stroke-width="20" stroke="rgb(242,107,94)" stroke-linejoin="miter" stroke-linecap="round" stroke-miterlimit="3"/></g><g style="opacity:0.85;"><line x1="195" y1="659" x2="195" y2="210" vector-effect="non-scaling-stroke" stroke-width="20" stroke="rgb(115,94,191)" stroke-linejoin="miter" stroke-linecap="round" stroke-miterlimit="3"/><line x1="210" y1="710" x2="210" y2="210" vector-effect="non-scaling-stroke" stroke-width="20" stroke="rgb(38,133,191)" stroke-linejoin="miter" stroke-linecap="round" stroke-miterlimit="3"/><line x1="258" y1="724" x2="258" y2="210" vector-effect="non-scaling-stroke" stroke-width="20" stroke="rgb(50,115,103)" stroke-linejoin="miter" stroke-linecap="round" stroke-miterlimit="3"/><line x1="305" y1="710" x2="305" y2="210" vector-effect="non-scaling-stroke" stroke-width="20" stroke="rgb(119,217,199)" stroke-linejoin="miter" stroke-linecap="round" stroke-miterlimit="3"/><line x1="324" y1="659" x2="324" y2="210" vector-effect="non-scaling-stroke" stroke-width="20" stroke="rgb(242,107,94)" stroke-linejoin="miter" stroke-linecap="round" stroke-miterlimit="3"/></g><g style="isolation:isolate"><circle vector-effect="non-scaling-stroke" cx="259.49999999999994" cy="500.0000000000001" r="112.5" fill="rgb(0,0,0)"/><path d=" M 616 595.915 L 616 410.179 L 645.674 410.179 L 659.961 386 L 695.13 386 L 712.715 410.179 L 739.092 410.179 L 739.092 427.763 L 886.362 427.763 L 884.164 488.21 L 847.896 502.498 L 825.915 521.181 L 808.331 545.36 L 800.638 568.44 L 795.143 579.43 L 747.884 579.43 L 739.092 579.43 L 739.092 595.915 L 706.121 595.915 L 706.121 613.5 L 652.268 613.5 L 652.268 595.915 L 616 595.915 Z " fill="rgb(0,0,0)"/></g><g style="isolation:isolate"><path d=" M 263.538 263.538 C 133.306 263.538 27.075 369.768 27.075 500 C 27.075 630.232 133.306 736.462 263.538 736.462 C 265.607 736.462 267.439 736.462 269.567 735.989 C 269.567 735.989 269.745 735.989 269.745 735.753 C 354.28 732.974 419.898 673.682 463.998 616.635 C 452.208 598.589 441.26 580.007 431.189 560.948 C 394.715 614.329 336.25 677.347 263.538 677.347 C 216.454 677.504 171.254 658.87 137.96 625.577 C 104.667 592.284 86.033 547.083 86.191 500 C 86.191 401.632 165.169 322.653 263.538 322.653 C 325.195 322.653 377.158 366.517 414.814 414.578 C 437.889 444.406 457.337 476.872 472.748 511.291 C 474.1 514.443 475.979 517.342 478.304 519.863 C 481.497 527.489 500 570.702 539.962 621.482 C 583.353 676.637 648.971 736.462 735.753 736.462 C 865.984 736.462 972.688 630.941 972.924 500.473 C 973.161 370.241 867.403 263.538 737.171 263.538 C 735.075 263.562 732.982 263.72 730.905 264.011 C 646.843 266.966 581.284 325.905 536.947 382.715 C 551.017 404.41 561.657 423.8 569.283 438.815 C 605.994 385.671 664.637 322.653 737.171 322.653 C 784.224 322.652 829.333 341.424 862.493 374.806 C 895.653 408.189 914.124 453.421 913.809 500.473 C 913.778 547.579 894.971 592.729 861.551 625.926 C 828.132 659.124 782.857 677.63 735.753 677.347 C 676.874 677.347 624.438 633.483 586.368 584.949 C 548.534 536.474 527.252 487.763 527.252 487.763 C 525.892 484.757 524.011 482.015 521.695 479.664 C 518.444 471.802 500.946 429.12 461.397 378.577 C 418.302 323.067 352.211 263.538 263.538 263.538 Z " fill="rgb(76,82,112)"/></g><g style="isolation:isolate"><path d=" M 663.556 379 C 659.093 379 655.085 381.231 652.398 384.802 L 638.554 405.778 L 623.389 405.778 C 615.802 405.778 610 411.58 610 419.167 L 610 588.759 C 610 596.346 615.802 602.148 623.389 602.148 L 645.704 602.148 L 645.704 611.074 C 645.704 615.992 649.711 620 654.63 620 L 699.259 620 C 704.177 620 708.185 615.992 708.185 611.074 L 708.185 602.148 L 730.5 602.148 C 738.087 602.148 743.889 596.346 743.889 588.759 L 743.889 584.296 L 785.394 584.296 C 794.32 584.296 801.907 577.602 802.8 569.113 C 808.142 532.972 839.383 501.731 875.546 496.376 C 884.472 495.033 891.167 487.45 891.167 478.524 L 891.167 437.019 C 891.167 433.448 889.828 429.887 887.141 427.655 C 884.472 424.973 881.348 423.63 877.778 423.63 L 743.889 423.63 L 743.889 419.167 C 743.889 411.58 738.087 405.778 730.5 405.778 L 714.88 405.778 L 701.053 384.802 C 698.371 381.231 694.359 379 689.896 379 L 663.556 379 Z  M 663.993 387.926 L 690.333 387.926 C 691.672 387.926 693.02 388.819 693.904 389.702 L 709.078 412.91 C 709.961 414.248 711.309 414.704 712.648 414.704 L 730.5 414.704 C 733.187 414.704 734.963 416.48 734.963 419.167 L 734.963 423.63 L 632.315 423.63 C 629.628 423.63 627.852 425.406 627.852 428.093 C 627.852 430.779 629.628 432.556 632.315 432.556 L 734.963 432.556 L 734.963 588.759 C 734.963 591.446 733.187 593.222 730.5 593.222 L 623.389 593.222 C 620.702 593.222 618.926 591.446 618.926 588.759 L 618.926 584.296 L 685.87 584.296 C 688.557 584.296 690.333 582.52 690.333 579.833 C 690.333 577.147 688.557 575.37 685.87 575.37 L 618.926 575.37 L 618.926 419.167 C 618.926 416.48 620.702 414.704 623.389 414.704 L 690.333 414.704 C 693.02 414.704 694.796 412.927 694.796 410.241 C 694.796 407.554 693.02 405.778 690.333 405.778 L 649.711 405.778 L 660.436 389.702 C 661.324 388.381 662.667 387.926 663.993 387.926 Z  M 743.889 432.556 L 878.215 432.556 C 879.554 432.556 880.464 433.011 881.353 433.894 C 882.241 434.787 882.678 435.68 882.678 437.019 L 882.678 478.524 C 882.241 482.987 879.121 487.004 874.658 487.45 C 834.942 493.261 800.127 527.617 794.325 567.783 C 793.87 572.246 789.862 575.37 785.399 575.37 L 743.889 575.37 L 743.889 432.556 Z  M 757.278 441.481 C 754.591 441.481 752.815 443.258 752.815 445.944 L 752.815 454.87 C 752.815 457.557 754.591 459.333 757.278 459.333 C 759.964 459.333 761.741 457.557 761.741 454.87 L 761.741 445.944 C 761.741 443.258 759.964 441.481 757.278 441.481 Z  M 779.593 441.481 C 776.906 441.481 775.13 443.258 775.13 445.944 L 775.13 454.87 C 775.13 457.557 776.906 459.333 779.593 459.333 C 782.279 459.333 784.056 457.557 784.056 454.87 L 784.056 445.944 C 784.056 443.258 782.279 441.481 779.593 441.481 Z  M 801.907 441.481 C 799.221 441.481 797.444 443.258 797.444 445.944 L 797.444 454.87 C 797.444 457.557 799.221 459.333 801.907 459.333 C 804.594 459.333 806.37 457.557 806.37 454.87 L 806.37 445.944 C 806.37 443.258 804.594 441.481 801.907 441.481 Z  M 824.222 441.481 C 821.536 441.481 819.759 443.258 819.759 445.944 L 819.759 454.87 C 819.759 457.557 821.536 459.333 824.222 459.333 C 826.909 459.333 828.685 457.557 828.685 454.87 L 828.685 445.944 C 828.685 443.258 826.909 441.481 824.222 441.481 Z  M 846.537 441.481 C 843.85 441.481 842.074 443.258 842.074 445.944 L 842.074 454.87 C 842.074 457.557 843.85 459.333 846.537 459.333 C 849.224 459.333 851 457.557 851 454.87 L 851 445.944 C 851 443.258 849.224 441.481 846.537 441.481 Z  M 868.852 441.481 C 866.165 441.481 864.389 443.258 864.389 445.944 L 864.389 454.87 C 864.389 457.557 866.165 459.333 868.852 459.333 C 871.539 459.333 873.315 457.557 873.315 454.87 L 873.315 445.944 C 873.315 443.258 871.539 441.481 868.852 441.481 Z  M 757.278 548.593 C 754.591 548.593 752.815 550.369 752.815 553.056 L 752.815 561.981 C 752.815 564.668 754.591 566.444 757.278 566.444 C 759.964 566.444 761.741 564.668 761.741 561.981 L 761.741 553.056 C 761.741 550.369 759.964 548.593 757.278 548.593 Z  M 779.593 548.593 C 776.906 548.593 775.13 550.369 775.13 553.056 L 775.13 561.981 C 775.13 564.668 776.906 566.444 779.593 566.444 C 782.279 566.444 784.056 564.668 784.056 561.981 L 784.056 553.056 C 784.056 550.369 782.279 548.593 779.593 548.593 Z  M 704.16 575.37 C 701.036 575.37 699.259 577.147 699.259 579.833 C 699.259 582.52 701.491 584.296 704.16 584.296 L 721.137 584.296 C 723.368 584.296 726.037 582.52 726.037 579.833 C 726.037 577.147 723.806 575.37 721.137 575.37 L 704.16 575.37 Z  M 654.63 602.148 L 699.259 602.148 L 699.259 611.074 L 654.63 611.074 L 654.63 602.148 Z " fill="rgb(246,82,160)" vector-effect="non-scaling-stroke" stroke-width="6" stroke="rgb(246,82,160)" stroke-linejoin="round" stroke-linecap="butt" stroke-miterlimit="4"/></g><g style="isolation:isolate"><path d=" M 258.5 372.5 C 328.916 372.5 386 429.584 386 500 C 386 570.416 328.916 627.5 258.5 627.5 C 188.084 627.5 131 570.416 131 500 C 131 429.584 188.084 372.5 258.5 372.5 Z  M 362.795 500 C 362.795 451.295 329.262 410.24 284 398.893 L 284 423.5 L 233 423.5 L 233 398.893 C 187.737 410.24 154.205 451.295 154.205 500 C 154.205 557.601 200.899 604.295 258.5 604.295 C 316.101 604.295 362.795 557.601 362.795 500 Z  M 194.75 482.66 C 204.327 482.66 212.09 490.423 212.09 500 C 212.09 509.577 204.327 517.34 194.75 517.34 C 185.188 517.34 177.41 509.563 177.41 500 C 177.41 490.438 185.188 482.66 194.75 482.66 Z  M 322.25 482.66 C 331.827 482.66 339.59 490.423 339.59 500 C 339.59 509.577 331.827 517.34 322.25 517.34 C 312.673 517.34 304.91 509.577 304.91 500 C 304.91 490.423 312.673 482.66 322.25 482.66 M 212.09 528.943 C 216.723 528.943 221.166 530.783 224.441 534.059 C 227.717 537.334 229.557 541.777 229.557 546.41 C 229.557 555.972 221.78 563.75 212.09 563.75 C 202.513 563.75 194.75 555.987 194.75 546.41 C 194.75 536.72 202.528 528.943 212.09 528.943 Z  M 304.91 528.943 C 314.472 528.943 322.25 536.72 322.25 546.41 C 322.25 555.987 314.487 563.75 304.91 563.75 C 295.22 563.75 287.443 555.972 287.443 546.41 C 287.443 541.777 289.283 537.334 292.559 534.059 C 295.834 530.783 300.277 528.943 304.91 528.943 Z  M 258.5 546.41 C 268.077 546.41 275.84 554.173 275.84 563.75 C 275.84 573.327 268.077 581.09 258.5 581.09 C 248.923 581.09 241.16 573.327 241.16 563.75 C 241.16 554.173 248.923 546.41 258.5 546.41 L 258.5 546.41 Z " fill="rgb(246,82,160)"/></g></g></svg>